<svg viewBox="0 0 20 20" fill="none" xmlns="http://www.w3.org/2000/svg">
  <path
    d="M15 5.83334H15.4167C15.8769 5.83334 16.25 5.46024 16.25 5.00001V4.58334C16.25 4.12311 15.8769 3.75001 15.4167 3.75001H12.9167M15 5.83334V15.8333C15 16.7538 14.2538 17.5 13.3333 17.5H6.66667C5.74619 17.5 5 16.7538 5 15.8333V5.83334M15 5.83334H5M12.9167 3.75001V3.33334C12.9167 2.41286 12.1705 1.66667 11.25 1.66667H8.75C7.82952 1.66667 7.08333 2.41286 7.08333 3.33334V3.75001M12.9167 3.75001H7.08333M5 5.83334H4.58333C4.1231 5.83334 3.75 5.46024 3.75 5.00001V4.58334C3.75 4.12311 4.1231 3.75001 4.58333 3.75001H7.08333M8.33333 8.75V14.5833M11.6667 8.75V14.5833"
    stroke="black"
    stroke-width="1.25"
    stroke-linecap="round"
  />
</svg>
