<svg viewBox="0 0 20 20" fill="none" xmlns="http://www.w3.org/2000/svg">
  <path
    fill-rule="evenodd"
    clip-rule="evenodd"
    d="M2.7356 2.7357H7.74989V7.75H2.7356V2.7357ZM1.4856 1.4857H2.7356H7.74989H8.99989V2.7357V7.75V9H7.74989H2.7356H1.4856V7.75V2.7357V1.4857ZM2.7356 12.25H7.74989V17.2643H2.7356V12.25ZM1.4856 11H2.7356H7.74989H8.99989V12.25V17.2643V18.5143H7.74989H2.7356H1.4856V17.2643V12.25V11ZM17.2643 2.7357H12.25V7.75H17.2643V2.7357ZM12.25 1.4857H11V2.7357V7.75V9H12.25H17.2643H18.5143V7.75V2.7357V1.4857H17.2643H12.25ZM12.25 12.25H17.2643V17.2643H12.25V12.25ZM11 11H12.25H17.2643H18.5143V12.25V17.2643V18.5143H17.2643H12.25H11V17.2643V12.25V11Z"
    fill="black"
  />
</svg>
