<svg viewBox="0 0 20 20" fill="none" xmlns="http://www.w3.org/2000/svg">
  <path
    d="M17.9162 4.53376C18.1737 4.76364 18.1961 5.15873 17.9662 5.41623C17.0823 6.4064 14.7028 8.91561 12.5546 11.1668C11.0534 12.74 9.54845 14.3096 8.04138 15.8771C7.29057 15.1761 6.5422 14.4726 5.79987 13.7626C4.85487 12.8588 3.76769 11.8005 3.28376 11.2585C3.05389 11.001 3.07628 10.6059 3.33378 10.376C3.59128 10.1461 3.98637 10.1685 4.21625 10.426C4.66021 10.9233 5.70692 11.944 6.66385 12.8592C7.18039 13.3532 7.66286 13.8091 7.99503 14.1216C8.68169 13.4067 10.11 11.918 11.6503 10.3039C13.8055 8.04535 16.1671 5.55456 17.0338 4.58378C17.2636 4.32628 17.6587 4.30389 17.9162 4.53376Z"
    fill="black"
  />
</svg>
