<svg viewBox="0 0 20 20" fill="none" xmlns="http://www.w3.org/2000/svg">
  <path
    d="M17.7632 9.286C18.0789 9.72467 18.0789 10.2753 17.7632 10.714C16.7688 12.0955 14.1811 15 10 15C5.81893 15 3.2312 12.0955 2.23679 10.714C1.92107 10.2753 1.92107 9.72467 2.23679 9.286C3.2312 7.90446 5.81893 5 10 5C14.1811 5 16.7688 7.90446 17.7632 9.286Z"
    stroke-width="1.25"
    stroke-linecap="round"
  />
  <path
    fill-rule="evenodd"
    clip-rule="evenodd"
    d="M10 8.2C9.00586 8.2 8.2 9.00586 8.2 10C8.2 10.9941 9.00586 11.8 10 11.8C10.9941 11.8 11.8 10.9941 11.8 10C11.8 9.00586 10.9941 8.2 10 8.2ZM7 10C7 8.3431 8.34314 7 10 7C11.6568 7 13 8.3431 13 10C13 11.6569 11.6568 13 10 13C8.34314 13 7 11.6569 7 10Z"
  />
</svg>
