<svg xmlns="http://www.w3.org/2000/svg" viewBox="0 0 24 24" fill="none">
  <path fill-rule="evenodd" clip-rule="evenodd" d="M11.9828 4.3501C7.78642 4.3501 3.59281 6.65693 0.357755 11.0609L0.357745 11.0609L0.354989 11.0647C0.159503 11.3337 0.0489529 11.6571 0.0435645 11.9939C0.0381905 12.3298 0.137794 12.6558 0.324065 12.9306C2.82885 16.6533 6.97223 19.6501 11.9828 19.6501C16.9405 19.6501 21.1648 16.6475 23.6759 12.9137C23.8573 12.6454 23.9566 12.3284 23.9566 12.0008C23.9566 11.6726 23.857 11.3551 23.6749 11.0864L23.6735 11.0844C21.1608 7.39873 16.9096 4.3501 11.9828 4.3501ZM11.9828 17.8501C7.77064 17.8501 4.15777 15.3479 1.88417 12.024C4.84912 8.03994 8.51486 6.1501 11.9828 6.1501C16.1113 6.1501 19.8327 8.70263 22.1197 12.0015C19.8425 15.3337 16.1505 17.8501 11.9828 17.8501ZM14.1817 12C14.1817 13.215 13.1967 14.2 11.9817 14.2C10.7667 14.2 9.78168 13.215 9.78168 12C9.78168 10.785 10.7667 9.8 11.9817 9.8C13.1967 9.8 14.1817 10.785 14.1817 12ZM15.9817 12C15.9817 14.2091 14.1908 16 11.9817 16C9.77254 16 7.98168 14.2091 7.98168 12C7.98168 9.79086 9.77254 8 11.9817 8C14.1908 8 15.9817 9.79086 15.9817 12Z" fill="black"/>
</svg>