<svg viewBox="0 0 20 20" fill="none" xmlns="http://www.w3.org/2000/svg">
  <path
    d="M6 4C2.6875 4 0 6.6875 0 10C0 13.3125 2.6875 16 6 16H14C17.3125 16 20 13.3125 20 10C20 6.6875 17.3125 4 14 4H6ZM15.5 7.25C15.8315 7.25 16.1495 7.3817 16.3839 7.61612C16.6183 7.85054 16.75 8.16848 16.75 8.5C16.75 8.83152 16.6183 9.14946 16.3839 9.38388C16.1495 9.6183 15.8315 9.75 15.5 9.75C15.1685 9.75 14.8505 9.6183 14.6161 9.38388C14.3817 9.14946 14.25 8.83152 14.25 8.5C14.25 8.16848 14.3817 7.85054 14.6161 7.61612C14.8505 7.3817 15.1685 7.25 15.5 7.25ZM12.25 11.5C12.25 11.1685 12.3817 10.8505 12.6161 10.6161C12.8505 10.3817 13.1685 10.25 13.5 10.25C13.8315 10.25 14.1495 10.3817 14.3839 10.6161C14.6183 10.8505 14.75 11.1685 14.75 11.5C14.75 11.8315 14.6183 12.1495 14.3839 12.3839C14.1495 12.6183 13.8315 12.75 13.5 12.75C13.1685 12.75 12.8505 12.6183 12.6161 12.3839C12.3817 12.1495 12.25 11.8315 12.25 11.5ZM5.25 8.25C5.25 7.83437 5.58437 7.5 6 7.5C6.41563 7.5 6.75 7.83437 6.75 8.25V9.25H7.75C8.16562 9.25 8.5 9.58437 8.5 10C8.5 10.4156 8.16562 10.75 7.75 10.75H6.75V11.75C6.75 12.1656 6.41563 12.5 6 12.5C5.58437 12.5 5.25 12.1656 5.25 11.75V10.75H4.25C3.83437 10.75 3.5 10.4156 3.5 10C3.5 9.58437 3.83437 9.25 4.25 9.25H5.25V8.25Z"
    fill="black"
  />
</svg>
