<svg viewBox="0 0 20 20" fill="none" xmlns="http://www.w3.org/2000/svg">
  <path
    fill-rule="evenodd"
    clip-rule="evenodd"
    d="M15.5882 3.70397C15.1814 3.29715 14.5218 3.29715 14.115 3.70396L13.5084 4.31051L15.701 6.47916L16.2956 5.88459C16.7024 5.47779 16.7024 4.81825 16.2956 4.41146L15.5882 3.70397ZM16.1478 7.80013C16.1462 7.80174 16.1446 7.80335 16.143 7.80494L7.81637 16.1316C7.56477 16.3832 7.25807 16.5727 6.9206 16.6852L3.48762 17.8296C2.6732 18.1011 1.89859 17.3262 2.16999 16.512L3.31431 13.079C3.42683 12.7414 3.61639 12.4348 3.86788 12.1833L13.2311 2.82006C14.1261 1.92514 15.5771 1.92512 16.4721 2.82006L17.1795 3.52755C18.0745 4.42251 18.0745 5.87353 17.1795 6.76849L16.1478 7.80013ZM14.8171 7.36305L12.6245 5.19441L4.75187 13.0671C4.63747 13.1815 4.55129 13.3209 4.50017 13.4743L3.4876 16.512L6.52525 15.4994C6.6787 15.4483 6.81808 15.3621 6.93239 15.2478L14.8171 7.36305Z"
    fill="black"
  />
</svg>
