<svg viewBox="0 0 20 20" fill="none" xmlns="http://www.w3.org/2000/svg">
  <path
    fill-rule="evenodd"
    clip-rule="evenodd"
    d="M1.875 8.5625C1.875 4.59297 5.09287 1.375 9.06234 1.375C13.0318 1.375 16.2497 4.59297 16.2497 8.5625C16.2497 10.3259 15.6147 11.9409 14.5609 13.1915L17.941 16.5571C18.1856 16.8007 18.1864 17.1964 17.9429 17.441C17.6993 17.6856 17.3036 17.6864 17.059 17.4429L13.6757 14.0741C12.4274 15.1202 10.8184 15.75 9.06234 15.75C5.09287 15.75 1.875 12.532 1.875 8.5625ZM9.06234 2.625C5.78325 2.625 3.125 5.2833 3.125 8.5625C3.125 11.8417 5.78325 14.5 9.06234 14.5C12.3414 14.5 14.9997 11.8417 14.9997 8.5625C14.9997 5.2833 12.3414 2.625 9.06234 2.625ZM8.43734 4.8125C8.43734 4.46732 8.71716 4.1875 9.06234 4.1875C11.4785 4.1875 13.4372 6.14626 13.4372 8.5625C13.4372 8.90768 13.1574 9.1875 12.8122 9.1875C12.4671 9.1875 12.1872 8.90768 12.1872 8.5625C12.1872 6.8366 10.7881 5.4375 9.06234 5.4375C8.71716 5.4375 8.43734 5.15768 8.43734 4.8125Z"
    fill="black"
  />
</svg>
