<svg viewBox="0 0 20 20" fill="none" xmlns="http://www.w3.org/2000/svg">
  <path
    fill-rule="evenodd"
    clip-rule="evenodd"
    d="M16.1075 4.68689C16.443 4.77125 16.7294 4.97813 16.9038 5.26063L17.8243 6.75812C17.998 7.04061 18.0453 7.37685 17.9555 7.69249C17.8655 8.00749 17.6458 8.27564 17.3448 8.43938C16.8523 8.70667 16.5458 9.22204 16.5458 9.78231V10.2177C16.5458 10.778 16.8523 11.2933 17.3448 11.5606C17.6458 11.7237 17.8655 11.9925 17.9555 12.3081C18.0453 12.6231 17.998 12.9594 17.8243 13.2419L16.9033 14.7394C16.7295 15.0219 16.4432 15.2287 16.1069 15.3132C15.7713 15.3975 15.4137 15.3531 15.1121 15.19C14.6119 14.9194 14.0089 14.9196 13.509 15.1908L12.9923 15.4708C12.523 15.7253 12.2305 16.2162 12.2301 16.75C12.2301 17.43 11.6454 18 10.921 18H9.07839C8.35448 18 7.7692 17.43 7.7692 16.75C7.7692 16.2162 7.47696 15.7252 7.00774 15.4708L6.49161 15.1908C5.99173 14.9197 5.38875 14.9194 4.88859 15.19C4.58695 15.3532 4.22938 15.3975 3.89309 15.3132C3.55747 15.2287 3.27113 15.0219 3.09734 14.7394L2.17575 13.2419C2.00195 12.9594 1.95468 12.6231 2.04457 12.3075C2.13445 11.9925 2.35487 11.7244 2.65586 11.5606C3.14826 11.2933 3.45483 10.778 3.45466 10.2177L3.45453 9.78231C3.45436 9.22204 3.14763 8.70667 2.65519 8.43938C2.3542 8.27627 2.13446 8.00751 2.04457 7.69188C1.95467 7.37688 2.00196 7.04063 2.17575 6.75813L3.09601 5.26063C3.27049 4.97813 3.55681 4.77126 3.89243 4.68689C4.22869 4.60251 4.58695 4.64689 4.88793 4.81001C5.38802 5.08095 5.99118 5.08072 6.49106 4.8094L7.00843 4.52857C7.47727 4.2741 7.76921 3.78344 7.76921 3.25C7.76921 2.57 8.35457 2 9.07839 2H10.9215C11.6453 2 12.2307 2.57 12.2307 3.25C12.2307 3.7834 12.5227 4.27401 12.9915 4.52829L13.5096 4.8092C14.0094 5.08029 14.6124 5.0806 15.1126 4.81001C15.4136 4.64689 15.7711 4.60252 16.1075 4.68689ZM10 12.6667C11.4728 12.6667 12.6667 11.4728 12.6667 10C12.6667 8.5272 11.4728 7.33333 10 7.33333C8.5272 7.33333 7.33333 8.5272 7.33333 10C7.33333 11.4728 8.5272 12.6667 10 12.6667Z"
  />
</svg>
