<svg viewBox="0 0 20 20" fill="none" xmlns="http://www.w3.org/2000/svg">
  <path
    fill-rule="evenodd"
    clip-rule="evenodd"
    d="M14.5834 3.54166C13.5478 3.54166 12.7084 4.38112 12.7084 5.41666C12.7084 6.45219 13.5478 7.29166 14.5834 7.29166C15.619 7.29166 16.4584 6.45219 16.4584 5.41666C16.4584 4.38112 15.619 3.54166 14.5834 3.54166ZM11.4584 5.41666C11.4584 3.69078 12.8575 2.29166 14.5834 2.29166C16.3094 2.29166 17.7084 3.69078 17.7084 5.41666C17.7084 7.14254 16.3094 8.54166 14.5834 8.54166C13.5811 8.54166 12.6891 8.06983 12.1172 7.33618L8.43615 9.19146C8.50503 9.44936 8.54175 9.72038 8.54175 9.99999C8.54175 10.3399 8.48748 10.6671 8.38714 10.9735L11.954 12.8939C12.51 12.0303 13.4799 11.4583 14.5834 11.4583C16.3093 11.4583 17.7084 12.8574 17.7084 14.5833C17.7084 16.3093 16.3093 17.7083 14.5834 17.7083C12.8575 17.7083 11.4584 16.3093 11.4584 14.5833C11.4584 14.4083 11.4728 14.2366 11.5005 14.0694L7.76724 12.0594C7.19447 12.7126 6.35377 13.125 5.41675 13.125C3.69087 13.125 2.29175 11.7259 2.29175 9.99999C2.29175 8.27406 3.69087 6.87499 5.41675 6.87499C6.41575 6.87499 7.30527 7.34375 7.87733 8.07332L11.5617 6.21639C11.4943 5.96113 11.4584 5.69309 11.4584 5.41666ZM5.41675 8.12499C4.38121 8.12499 3.54175 8.96442 3.54175 9.99999C3.54175 11.0356 4.38121 11.875 5.41675 11.875C6.45229 11.875 7.29175 11.0356 7.29175 9.99999C7.29175 8.96442 6.45229 8.12499 5.41675 8.12499ZM14.5834 12.7083C13.5478 12.7083 12.7084 13.5478 12.7084 14.5833C12.7084 15.6189 13.5478 16.4583 14.5834 16.4583C15.619 16.4583 16.4584 15.6189 16.4584 14.5833C16.4584 13.5478 15.619 12.7083 14.5834 12.7083Z"
    fill="black"
  />
</svg>
