<svg viewBox="0 0 20 20" fill="none" xmlns="http://www.w3.org/2000/svg">
  <path
    d="M10.903 2.5625C10.7374 2.21875 10.3874 2 10.003 2C9.61866 2 9.27178 2.21875 9.10303 2.5625L7.09366 6.69688L2.60616 7.35938C2.23116 7.41563 1.91866 7.67812 1.80303 8.0375C1.68741 8.39687 1.78116 8.79375 2.04991 9.05937L5.30616 12.2812L4.53741 16.8344C4.47491 17.2094 4.63116 17.5906 4.94053 17.8125C5.24991 18.0344 5.65928 18.0625 5.99678 17.8844L10.0062 15.7437L14.0155 17.8844C14.353 18.0625 14.7624 18.0375 15.0718 17.8125C15.3812 17.5875 15.5374 17.2094 15.4749 16.8344L14.703 12.2812L17.9593 9.05937C18.228 8.79375 18.3249 8.39687 18.2062 8.0375C18.0874 7.67812 17.778 7.41563 17.403 7.35938L12.9124 6.69688L10.903 2.5625Z"
    fill="black"
  />
</svg>
