<svg viewBox="0 0 20 21" fill="none" xmlns="http://www.w3.org/2000/svg">
  <path
    d="M10.903 2.59462C10.7374 2.25087 10.3874 2.03212 10.003 2.03212C9.61866 2.03212 9.27178 2.25087 9.10303 2.59462L7.09366 6.72899L2.60616 7.39149C2.23116 7.44774 1.91866 7.71024 1.80303 8.06962C1.68741 8.42899 1.78116 8.82587 2.04991 9.09149L5.30616 12.3134L4.53741 16.8665C4.47491 17.2415 4.63116 17.6227 4.94053 17.8446C5.24991 18.0665 5.65928 18.0946 5.99678 17.9165L10.0062 15.7759L14.0155 17.9165C14.353 18.0946 14.7624 18.0696 15.0718 17.8446C15.3812 17.6196 15.5374 17.2415 15.4749 16.8665L14.703 12.3134L17.9593 9.09149C18.228 8.82587 18.3249 8.42899 18.2062 8.06962C18.0874 7.71024 17.778 7.44774 17.403 7.39149L12.9124 6.72899L10.903 2.59462Z"
    fill="black"
  />
</svg>
