<svg viewBox="0 0 20 20" fill="none" xmlns="http://www.w3.org/2000/svg">
  <path
    fill-rule="evenodd"
    clip-rule="evenodd"
    d="M6.46768 3.12499C6.57293 1.95697 7.55457 1.04166 8.75 1.04166H11.25C12.4455 1.04166 13.4271 1.95697 13.5323 3.12499H15.4167C16.2221 3.12499 16.875 3.77792 16.875 4.58332V4.99999C16.875 5.73466 16.3317 6.34247 15.625 6.44355V15.8333C15.625 17.099 14.599 18.125 13.3333 18.125H6.66667C5.40102 18.125 4.375 17.099 4.375 15.8333V6.44355C3.66827 6.34246 3.125 5.73467 3.125 4.99999V4.58332C3.125 3.77791 3.77792 3.12499 4.58333 3.12499H6.46768ZM7.72917 3.12499H12.2708C12.1743 2.64952 11.754 2.29166 11.25 2.29166H8.75C8.24605 2.29166 7.82569 2.64952 7.72917 3.12499ZM5.625 6.45832V15.8333C5.625 16.4086 6.09136 16.875 6.66667 16.875H13.3333C13.9087 16.875 14.375 16.4086 14.375 15.8333V6.45832H5.625ZM4.58333 4.37499C4.46828 4.37499 4.375 4.46827 4.375 4.58332V4.99999C4.375 5.11505 4.46828 5.20832 4.58333 5.20832H15.4167C15.5317 5.20832 15.625 5.11505 15.625 4.99999V4.58332C15.625 4.46826 15.5317 4.37499 15.4167 4.37499H4.58333ZM8.33333 8.12499C8.67851 8.12499 8.95833 8.40481 8.95833 8.74999V14.5833C8.95833 14.9285 8.67851 15.2083 8.33333 15.2083C7.98816 15.2083 7.70833 14.9285 7.70833 14.5833V8.74999C7.70833 8.40481 7.98816 8.12499 8.33333 8.12499ZM11.6667 8.12499C12.0118 8.12499 12.2917 8.40481 12.2917 8.74999V14.5833C12.2917 14.9285 12.0118 15.2083 11.6667 15.2083C11.3215 15.2083 11.0417 14.9285 11.0417 14.5833V8.74999C11.0417 8.40481 11.3215 8.12499 11.6667 8.12499Z"
    fill="black"
  />
</svg>
