<svg viewBox="0 0 20 20" fill="none" xmlns="http://www.w3.org/2000/svg">
  <path
    fill-rule="evenodd"
    clip-rule="evenodd"
    d="M13.3333 1.875C13.6785 1.875 13.9583 2.15482 13.9583 2.5V4.16667C13.9583 4.51185 13.6785 4.79167 13.3333 4.79167C12.9882 4.79167 12.7083 4.51185 12.7083 4.16667V2.5C12.7083 2.15482 12.9882 1.875 13.3333 1.875ZM6.66667 1.87501C7.01184 1.87501 7.29167 2.15483 7.29167 2.50001V4.16668C7.29167 4.51185 7.01184 4.79168 6.66667 4.79168C6.32149 4.79168 6.04167 4.51185 6.04167 4.16668V2.50001C6.04167 2.15483 6.32149 1.87501 6.66667 1.87501ZM1.875 4.91668C1.875 3.69705 2.86371 2.70834 4.08333 2.70834H4.16667C4.51184 2.70834 4.79167 2.98816 4.79167 3.33334C4.79167 3.67852 4.51184 3.95834 4.16667 3.95834H4.08333C3.55406 3.95834 3.125 4.3874 3.125 4.91668V6.04168H16.875V4.91668C16.875 4.38741 16.4459 3.95834 15.9167 3.95834H15.8333C15.4882 3.95834 15.2083 3.67852 15.2083 3.33334C15.2083 2.98816 15.4882 2.70834 15.8333 2.70834H15.9167C17.1363 2.70834 18.125 3.69704 18.125 4.91668V15C18.125 16.2657 17.099 17.2917 15.8333 17.2917H4.16667C2.90102 17.2917 1.875 16.2657 1.875 15V4.91668ZM3.125 7.29168V15C3.125 15.5753 3.59136 16.0417 4.16667 16.0417H15.8333C16.4087 16.0417 16.875 15.5753 16.875 15V7.29168H3.125ZM8.54167 3.33334C8.54167 2.98816 8.82149 2.70834 9.16667 2.70834H10.8333C11.1785 2.70834 11.4583 2.98816 11.4583 3.33334C11.4583 3.67852 11.1785 3.95834 10.8333 3.95834H9.16667C8.82149 3.95834 8.54167 3.67852 8.54167 3.33334Z"
    fill="black"
  />
</svg>
