<svg width="20" height="20" viewBox="0 0 20 20" fill="none" xmlns="http://www.w3.org/2000/svg">
<path fill-rule="evenodd" clip-rule="evenodd" d="M3.55806 3.55806C3.80214 3.31398 4.19787 3.31398 4.44194 3.55806L9.99999 9.11612L15.5581 3.55806C15.8021 3.31398 16.1979 3.31398 16.4419 3.55806C16.686 3.80214 16.686 4.19786 16.4419 4.44194L10.8839 10L16.4419 15.5581C16.686 15.8021 16.686 16.1979 16.4419 16.4419C16.1979 16.686 15.8021 16.686 15.5581 16.4419L9.99999 10.8839L4.44194 16.4419C4.19786 16.686 3.80214 16.686 3.55806 16.4419C3.31398 16.1979 3.31398 15.8021 3.55806 15.5581L9.11611 10L3.55806 4.44194C3.31398 4.19786 3.31398 3.80213 3.55806 3.55806Z" fill="black"/>
</svg>
