<svg viewBox="0 0 20 20" fill="none" xmlns="http://www.w3.org/2000/svg">
  <path
    d="M10.0144 18C9.52429 18 9.03417 17.8326 8.62093 17.5077C5.77629 15.2923 1 11.0782 1 7.82892C1 5.01292 3.08542 2 6.17993 2C8.0347 2 9.18793 2.98462 9.83182 3.80185C9.88948 3.84123 10.1105 3.84123 10.1778 3.792C10.8121 2.98462 11.9653 2 13.8201 2C16.9242 2 19 5.01292 19 7.82892C19 11.0782 14.2237 15.2923 11.3791 17.5077C10.9658 17.8326 10.4757 18 9.98559 18H10.0144ZM6.17993 3.23077C3.58516 3.23077 2.20128 5.89908 2.20128 7.82892C2.20128 9.75877 4.87293 13.0375 9.3417 16.5329C9.73572 16.848 10.2739 16.848 10.6679 16.5329C15.1367 13.0375 17.8083 9.78831 17.8083 7.82892C17.8083 5.86954 16.4245 3.23077 13.8297 3.23077C12.7245 3.23077 11.8115 3.68369 11.11 4.56985C10.6199 5.19015 9.38975 5.19015 8.89963 4.56985C8.19808 3.68369 7.2851 3.23077 6.17993 3.23077Z"
    fill="black"
  />
</svg>
