<svg viewBox="0 0 20 20" fill="none" xmlns="http://www.w3.org/2000/svg">
  <path
    fill-rule="evenodd"
    clip-rule="evenodd"
    d="M12.8157 5.85177C13.0737 6.0811 13.4688 6.05786 13.6981 5.79987C13.9274 5.54188 13.9042 5.14684 13.6462 4.91751L9.76941 1.4715L5.89265 4.91751C5.63466 5.14683 5.61142 5.54188 5.84074 5.79987C6.07007 6.05786 6.46511 6.0811 6.7231 5.85177L9.76941 3.14394L12.8157 5.85177ZM6.72285 14.1482C6.46486 13.9189 6.06982 13.9422 5.84049 14.2001C5.61117 14.4581 5.63441 14.8532 5.8924 15.0825L9.76916 18.5285L13.6459 15.0825C13.9039 14.8532 13.9272 14.4581 13.6978 14.2001C13.4685 13.9422 13.0735 13.9189 12.8155 14.1482L9.76916 16.8561L6.72285 14.1482Z"
    fill="black"
  />
</svg>
