<svg viewBox="0 0 20 20" fill="none" xmlns="http://www.w3.org/2000/svg">
  <path
    d="M10 13.25C9.53587 13.25 9.09075 13.4344 8.76256 13.7626C8.43437 14.0908 8.25 14.5359 8.25 15C8.25 15.4641 8.43437 15.9092 8.76256 16.2374C9.09075 16.5656 9.53587 16.75 10 16.75C10.4641 16.75 10.9092 16.5656 11.2374 16.2374C11.5656 15.9092 11.75 15.4641 11.75 15C11.75 14.5359 11.5656 14.0908 11.2374 13.7626C10.9092 13.4344 10.4641 13.25 10 13.25ZM10 8.25C9.53587 8.25 9.09075 8.43437 8.76256 8.76256C8.43437 9.09075 8.25 9.53587 8.25 10C8.25 10.4641 8.43437 10.9092 8.76256 11.2374C9.09075 11.5656 9.53587 11.75 10 11.75C10.4641 11.75 10.9092 11.5656 11.2374 11.2374C11.5656 10.9092 11.75 10.4641 11.75 10C11.75 9.53587 11.5656 9.09075 11.2374 8.76256C10.9092 8.43437 10.4641 8.25 10 8.25ZM11.75 5C11.75 4.53587 11.5656 4.09075 11.2374 3.76256C10.9092 3.43437 10.4641 3.25 10 3.25C9.53587 3.25 9.09075 3.43437 8.76256 3.76256C8.43437 4.09075 8.25 4.53587 8.25 5C8.25 5.46413 8.43437 5.90925 8.76256 6.23744C9.09075 6.56563 9.53587 6.75 10 6.75C10.4641 6.75 10.9092 6.56563 11.2374 6.23744C11.5656 5.90925 11.75 5.46413 11.75 5Z"
    fill="black"
  />
</svg>
