<svg viewBox="0 0 20 20" fill="none" xmlns="http://www.w3.org/2000/svg">
  <path
    fill-rule="evenodd"
    clip-rule="evenodd"
    d="M1 4.375C0.654822 4.375 0.375 4.65482 0.375 5C0.375 5.34518 0.654822 5.625 1 5.625H19C19.3452 5.625 19.625 5.34518 19.625 5C19.625 4.65482 19.3452 4.375 19 4.375H1ZM0.375 10C0.375 9.65482 0.654822 9.375 1 9.375H19C19.3452 9.375 19.625 9.65482 19.625 10C19.625 10.3452 19.3452 10.625 19 10.625H1C0.654822 10.625 0.375 10.3452 0.375 10ZM0.375 15C0.375 14.6548 0.654822 14.375 1 14.375H19C19.3452 14.375 19.625 14.6548 19.625 15C19.625 15.3452 19.3452 15.625 19 15.625H1C0.654822 15.625 0.375 15.3452 0.375 15Z"
    fill="black"
  />
</svg>
